<?xml version="1.0" standalone="no"?>
<!DOCTYPE svg PUBLIC "-//W3C//DTD SVG 20010904//EN"
 "http://www.w3.org/TR/2001/REC-SVG-20010904/DTD/svg10.dtd">
<svg version="1.0" xmlns="http://www.w3.org/2000/svg"
 width="700.000000pt" height="700.000000pt" viewBox="0 0 700.000000 700.000000"
 preserveAspectRatio="xMidYMid meet">
<metadata>
Created by potrace 1.14, written by Peter Selinger 2001-2017
</metadata>
<g transform="translate(0.000000,700.000000) scale(0.100000,-0.100000)"
fill="#000000" stroke="none">
<path d="M2450 6088 c-83 -17 -212 -59 -279 -92 -267 -130 -464 -378 -524
-661 -13 -61 -15 -306 -16 -1810 -1 -1856 -2 -1793 45 -1933 81 -237 267 -443
499 -552 97 -45 103 -47 165 -64 256 -70 514 -45 748 73 44 22 739 479 847
557 11 8 247 166 525 351 1184 788 1218 812 1287 881 86 85 167 202 208 301
28 66 38 99 62 196 13 54 11 255 -3 329 -35 184 -124 353 -252 482 -86 87 -65
71 -737 529 -290 197 -612 418 -718 492 -54 37 -109 75 -122 83 -13 8 -62 41
-107 72 -136 93 -305 208 -443 303 -185 126 -309 211 -395 270 -209 145 -396
205 -629 203 -64 -1 -136 -5 -161 -10z"/>
</g>
</svg>
