<svg width="260" height="10" viewBox="0 0 260 10" fill="none" xmlns="http://www.w3.org/2000/svg">
<path d="M229.959 8.09091C230.732 6.21212 231.95 4.39394 233.614 2.63636C235.278 0.878788 237.031 0 238.873 0C240.775 0 242.885 0.666666 245.202 2C247.58 3.27273 249.362 3.90909 250.551 3.90909C252.572 3.90909 254.681 2.60606 256.88 0C257.89 0.424241 258.93 1.0606 260 1.90909C259.227 3.84848 258.009 5.69697 256.345 7.45455C254.681 9.15152 252.898 10 250.997 10C249.095 10 246.985 9.36364 244.668 8.09091C242.35 6.75758 240.567 6.09091 239.319 6.09091C237.358 6.09091 235.278 7.39394 233.079 10C232.069 9.75758 231.029 9.12121 229.959 8.09091Z" fill="url(#paint0_linear_106_197)"/>
<path d="M212.27 8.09091C213.043 6.21212 214.261 4.39394 215.925 2.63636C217.589 0.878788 219.342 0 221.184 0C223.086 0 225.196 0.666666 227.513 2C229.891 3.27273 231.673 3.90909 232.862 3.90909C234.883 3.90909 236.992 2.60606 239.191 0C240.201 0.424241 241.241 1.0606 242.311 1.90909C241.539 3.84848 240.32 5.69697 238.656 7.45455C236.992 9.15152 235.209 10 233.308 10C231.406 10 229.296 9.36364 226.979 8.09091C224.661 6.75758 222.878 6.09091 221.63 6.09091C219.669 6.09091 217.589 7.39394 215.39 10C214.38 9.75758 213.34 9.12121 212.27 8.09091Z" fill="url(#paint1_linear_106_197)"/>
<path d="M194.581 8.09091C195.353 6.21212 196.572 4.39394 198.236 2.63636C199.899 0.878788 201.653 0 203.495 0C205.397 0 207.506 0.666666 209.824 2C212.201 3.27273 213.984 3.90909 215.173 3.90909C217.193 3.90909 219.303 2.60606 221.502 0C222.512 0.424241 223.552 1.0606 224.622 1.90909C223.849 3.84848 222.631 5.69697 220.967 7.45455C219.303 9.15152 217.52 10 215.618 10C213.717 10 211.607 9.36364 209.289 8.09091C206.971 6.75758 205.189 6.09091 203.941 6.09091C201.979 6.09091 199.9 7.39394 197.701 10C196.69 9.75758 195.65 9.12121 194.581 8.09091Z" fill="url(#paint2_linear_106_197)"/>
<path d="M176.892 8.09091C177.664 6.21212 178.882 4.39394 180.546 2.63636C182.21 0.878788 183.964 0 185.806 0C187.708 0 189.817 0.666666 192.135 2C194.512 3.27273 196.295 3.90909 197.483 3.90909C199.504 3.90909 201.614 2.60606 203.813 0C204.823 0.424241 205.863 1.0606 206.933 1.90909C206.16 3.84848 204.942 5.69697 203.278 7.45455C201.614 9.15152 199.831 10 197.929 10C196.027 10 193.918 9.36364 191.6 8.09091C189.282 6.75758 187.5 6.09091 186.252 6.09091C184.29 6.09091 182.21 7.39394 180.012 10C179.001 9.75758 177.961 9.12121 176.892 8.09091Z" fill="url(#paint3_linear_106_197)"/>
<path d="M159.202 8.09091C159.975 6.21212 161.193 4.39394 162.857 2.63636C164.521 0.878788 166.274 0 168.117 0C170.018 0 172.128 0.666666 174.446 2C176.823 3.27273 178.606 3.90909 179.794 3.90909C181.815 3.90909 183.925 2.60606 186.123 0C187.134 0.424241 188.174 1.0606 189.243 1.90909C188.471 3.84848 187.252 5.69697 185.589 7.45455C183.925 9.15152 182.142 10 180.24 10C178.338 10 176.229 9.36364 173.911 8.09091C171.593 6.75758 169.81 6.09091 168.562 6.09091C166.601 6.09091 164.521 7.39394 162.322 10C161.312 9.75758 160.272 9.12121 159.202 8.09091Z" fill="url(#paint4_linear_106_197)"/>
<path d="M141.513 8.09091C142.286 6.21212 143.504 4.39394 145.168 2.63636C146.832 0.878788 148.585 0 150.427 0C152.329 0 154.439 0.666666 156.757 2C159.134 3.27273 160.916 3.90909 162.105 3.90909C164.126 3.90909 166.235 2.60606 168.434 0C169.444 0.424241 170.484 1.0606 171.554 1.90909C170.782 3.84848 169.563 5.69697 167.899 7.45455C166.235 9.15152 164.452 10 162.551 10C160.649 10 158.539 9.36364 156.222 8.09091C153.904 6.75758 152.121 6.09091 150.873 6.09091C148.912 6.09091 146.832 7.39394 144.633 10C143.623 9.75758 142.583 9.12121 141.513 8.09091Z" fill="url(#paint5_linear_106_197)"/>
<path d="M123.824 8.09091C124.597 6.21212 125.815 4.39394 127.479 2.63636C129.143 0.878788 130.896 0 132.739 0C134.64 0 136.75 0.666666 139.068 2C141.445 3.27273 143.228 3.90909 144.416 3.90909C146.437 3.90909 148.546 2.60606 150.745 0C151.756 0.424241 152.796 1.0606 153.865 1.90909C153.093 3.84848 151.874 5.69697 150.21 7.45455C148.546 9.15152 146.764 10 144.862 10C142.96 10 140.851 9.36364 138.533 8.09091C136.215 6.75758 134.432 6.09091 133.184 6.09091C131.223 6.09091 129.143 7.39394 126.944 10C125.934 9.75758 124.894 9.12121 123.824 8.09091Z" fill="url(#paint6_linear_106_197)"/>
<path d="M106.135 8.09091C106.907 6.21212 108.126 4.39394 109.79 2.63636C111.454 0.878788 113.207 0 115.049 0C116.951 0 119.061 0.666666 121.378 2C123.755 3.27273 125.538 3.90909 126.727 3.90909C128.747 3.90909 130.857 2.60606 133.056 0C134.066 0.424241 135.106 1.0606 136.176 1.90909C135.403 3.84848 134.185 5.69697 132.521 7.45455C130.857 9.15152 129.074 10 127.172 10C125.271 10 123.161 9.36364 120.843 8.09091C118.526 6.75758 116.743 6.09091 115.495 6.09091C113.534 6.09091 111.454 7.39394 109.255 10C108.245 9.75758 107.205 9.12121 106.135 8.09091Z" fill="url(#paint7_linear_106_197)"/>
<path d="M88.4458 8.09091C89.2184 6.21212 90.4366 4.39394 92.1006 2.63636C93.7646 0.878788 95.5178 0 97.36 0C99.2617 0 101.371 0.666666 103.689 2C106.066 3.27273 107.849 3.90909 109.038 3.90909C111.058 3.90909 113.168 2.60606 115.367 0C116.377 0.424241 117.417 1.0606 118.487 1.90909C117.714 3.84848 116.496 5.69697 114.832 7.45455C113.168 9.15152 111.385 10 109.483 10C107.582 10 105.472 9.36364 103.154 8.09091C100.837 6.75758 99.0537 6.09091 97.8057 6.09091C95.8446 6.09091 93.7646 7.39394 91.5658 10C90.5555 9.75758 89.5155 9.12121 88.4458 8.09091Z" fill="url(#paint8_linear_106_197)"/>
<path d="M70.7566 8.09091C71.5292 6.21212 72.7474 4.39394 74.4114 2.63636C76.0754 0.878788 77.8285 0 79.6708 0C81.5725 0 83.6822 0.666666 85.9999 2C88.377 3.27273 90.1599 3.90909 91.3485 3.90909C93.369 3.90909 95.4787 2.60606 97.6776 0C98.6878 0.424241 99.7278 1.0606 100.798 1.90909C100.025 3.84848 98.8067 5.69697 97.1427 7.45455C95.4787 9.15152 93.6959 10 91.7942 10C89.8925 10 87.7828 9.36364 85.4651 8.09091C83.1474 6.75758 81.3645 6.09091 80.1165 6.09091C78.1554 6.09091 76.0754 7.39394 73.8766 10C72.8663 9.75758 71.8263 9.12121 70.7566 8.09091Z" fill="url(#paint9_linear_106_197)"/>
<path d="M53.0674 8.09091C53.8399 6.21212 55.0582 4.39394 56.7222 2.63636C58.3862 0.878788 60.1393 0 61.9816 0C63.8833 0 65.993 0.666666 68.3107 2C70.6878 3.27273 72.4707 3.90909 73.6592 3.90909C75.6798 3.90909 77.7895 2.60606 79.9883 0C80.9986 0.424241 82.0386 1.0606 83.1083 1.90909C82.3358 3.84848 81.1175 5.69697 79.4535 7.45455C77.7895 9.15152 76.0067 10 74.105 10C72.2033 10 70.0936 9.36364 67.7759 8.09091C65.4582 6.75758 63.6753 6.09091 62.4273 6.09091C60.4662 6.09091 58.3862 7.39394 56.1874 10C55.1771 9.75758 54.1371 9.12121 53.0674 8.09091Z" fill="url(#paint10_linear_106_197)"/>
<path d="M35.3784 8.09091C36.151 6.21212 37.3693 4.39394 39.0333 2.63636C40.6972 0.878788 42.4504 0 44.2926 0C46.1943 0 48.304 0.666666 50.6217 2C52.9989 3.27273 54.7817 3.90909 55.9703 3.90909C57.9908 3.90909 60.1005 2.60606 62.2994 0C63.3097 0.424241 64.3497 1.0606 65.4194 1.90909C64.6468 3.84848 63.4285 5.69697 61.7645 7.45455C60.1005 9.15152 58.3177 10 56.416 10C54.5143 10 52.4046 9.36364 50.0869 8.09091C47.7692 6.75758 45.9863 6.09091 44.7384 6.09091C42.7772 6.09091 40.6972 7.39394 38.4984 10C37.4881 9.75758 36.4481 9.12121 35.3784 8.09091Z" fill="url(#paint11_linear_106_197)"/>
<path d="M17.689 8.09091C18.4615 6.21212 19.6798 4.39394 21.3438 2.63636C23.0078 0.878788 24.7609 0 26.6032 0C28.5049 0 30.6146 0.666666 32.9323 2C35.3094 3.27273 37.0923 3.90909 38.2808 3.90909C40.3014 3.90909 42.4111 2.60606 44.6099 0C45.6202 0.424241 46.6602 1.0606 47.7299 1.90909C46.9573 3.84848 45.7391 5.69697 44.0751 7.45455C42.4111 9.15152 40.6282 10 38.7265 10C36.8248 10 34.7151 9.36364 32.3974 8.09091C30.0797 6.75758 28.2969 6.09091 27.0489 6.09091C25.0878 6.09091 23.0078 7.39394 20.8089 10C19.7987 9.75758 18.7587 9.12121 17.689 8.09091Z" fill="url(#paint12_linear_106_197)"/>
<path d="M0 8.09091C0.772566 6.21212 1.99084 4.39394 3.65483 2.63636C5.31882 0.878788 7.07195 0 8.91423 0C10.8159 0 12.9256 0.666666 15.2433 2C17.6205 3.27273 19.4033 3.90909 20.5919 3.90909C22.6124 3.90909 24.7221 2.60606 26.921 0C27.9312 0.424241 28.9712 1.0606 30.0409 1.90909C29.2684 3.84848 28.0501 5.69697 26.3861 7.45455C24.7221 9.15152 22.9393 10 21.0376 10C19.1359 10 17.0262 9.36364 14.7085 8.09091C12.3908 6.75758 10.6079 6.09091 9.35994 6.09091C7.39881 6.09091 5.31882 7.39394 3.11998 10C2.1097 9.75758 1.06971 9.12121 0 8.09091Z" fill="url(#paint13_linear_106_197)"/>
<defs>
<linearGradient id="paint0_linear_106_197" x1="-13.2671" y1="-23.5065" x2="284.299" y2="-7.76873" gradientUnits="userSpaceOnUse">
<stop stop-color="#C6F1F7"/>
<stop offset="0.364583" stop-color="#F983E9"/>
<stop offset="0.739583" stop-color="#B877FF"/>
<stop offset="1" stop-color="#C2E9CD"/>
</linearGradient>
<linearGradient id="paint1_linear_106_197" x1="-13.2669" y1="-23.5065" x2="284.299" y2="-7.76874" gradientUnits="userSpaceOnUse">
<stop stop-color="#C6F1F7"/>
<stop offset="0.364583" stop-color="#F983E9"/>
<stop offset="0.739583" stop-color="#B877FF"/>
<stop offset="1" stop-color="#C2E9CD"/>
</linearGradient>
<linearGradient id="paint2_linear_106_197" x1="-13.2671" y1="-23.5065" x2="284.299" y2="-7.76875" gradientUnits="userSpaceOnUse">
<stop stop-color="#C6F1F7"/>
<stop offset="0.364583" stop-color="#F983E9"/>
<stop offset="0.739583" stop-color="#B877FF"/>
<stop offset="1" stop-color="#C2E9CD"/>
</linearGradient>
<linearGradient id="paint3_linear_106_197" x1="-13.2671" y1="-23.5065" x2="284.299" y2="-7.76875" gradientUnits="userSpaceOnUse">
<stop stop-color="#C6F1F7"/>
<stop offset="0.364583" stop-color="#F983E9"/>
<stop offset="0.739583" stop-color="#B877FF"/>
<stop offset="1" stop-color="#C2E9CD"/>
</linearGradient>
<linearGradient id="paint4_linear_106_197" x1="-13.2671" y1="-23.5065" x2="284.299" y2="-7.76871" gradientUnits="userSpaceOnUse">
<stop stop-color="#C6F1F7"/>
<stop offset="0.364583" stop-color="#F983E9"/>
<stop offset="0.739583" stop-color="#B877FF"/>
<stop offset="1" stop-color="#C2E9CD"/>
</linearGradient>
<linearGradient id="paint5_linear_106_197" x1="-13.2672" y1="-23.5065" x2="284.299" y2="-7.76871" gradientUnits="userSpaceOnUse">
<stop stop-color="#C6F1F7"/>
<stop offset="0.364583" stop-color="#F983E9"/>
<stop offset="0.739583" stop-color="#B877FF"/>
<stop offset="1" stop-color="#C2E9CD"/>
</linearGradient>
<linearGradient id="paint6_linear_106_197" x1="-13.2669" y1="-23.5065" x2="284.299" y2="-7.76872" gradientUnits="userSpaceOnUse">
<stop stop-color="#C6F1F7"/>
<stop offset="0.364583" stop-color="#F983E9"/>
<stop offset="0.739583" stop-color="#B877FF"/>
<stop offset="1" stop-color="#C2E9CD"/>
</linearGradient>
<linearGradient id="paint7_linear_106_197" x1="-13.2671" y1="-23.5065" x2="284.299" y2="-7.76874" gradientUnits="userSpaceOnUse">
<stop stop-color="#C6F1F7"/>
<stop offset="0.364583" stop-color="#F983E9"/>
<stop offset="0.739583" stop-color="#B877FF"/>
<stop offset="1" stop-color="#C2E9CD"/>
</linearGradient>
<linearGradient id="paint8_linear_106_197" x1="-13.2671" y1="-23.5065" x2="284.299" y2="-7.76874" gradientUnits="userSpaceOnUse">
<stop stop-color="#C6F1F7"/>
<stop offset="0.364583" stop-color="#F983E9"/>
<stop offset="0.739583" stop-color="#B877FF"/>
<stop offset="1" stop-color="#C2E9CD"/>
</linearGradient>
<linearGradient id="paint9_linear_106_197" x1="-13.2671" y1="-23.5065" x2="284.299" y2="-7.76876" gradientUnits="userSpaceOnUse">
<stop stop-color="#C6F1F7"/>
<stop offset="0.364583" stop-color="#F983E9"/>
<stop offset="0.739583" stop-color="#B877FF"/>
<stop offset="1" stop-color="#C2E9CD"/>
</linearGradient>
<linearGradient id="paint10_linear_106_197" x1="-13.2672" y1="-23.5065" x2="284.299" y2="-7.76876" gradientUnits="userSpaceOnUse">
<stop stop-color="#C6F1F7"/>
<stop offset="0.364583" stop-color="#F983E9"/>
<stop offset="0.739583" stop-color="#B877FF"/>
<stop offset="1" stop-color="#C2E9CD"/>
</linearGradient>
<linearGradient id="paint11_linear_106_197" x1="-13.267" y1="-23.5065" x2="284.299" y2="-7.76871" gradientUnits="userSpaceOnUse">
<stop stop-color="#C6F1F7"/>
<stop offset="0.364583" stop-color="#F983E9"/>
<stop offset="0.739583" stop-color="#B877FF"/>
<stop offset="1" stop-color="#C2E9CD"/>
</linearGradient>
<linearGradient id="paint12_linear_106_197" x1="-13.2672" y1="-23.5065" x2="284.299" y2="-7.76872" gradientUnits="userSpaceOnUse">
<stop stop-color="#C6F1F7"/>
<stop offset="0.364583" stop-color="#F983E9"/>
<stop offset="0.739583" stop-color="#B877FF"/>
<stop offset="1" stop-color="#C2E9CD"/>
</linearGradient>
<linearGradient id="paint13_linear_106_197" x1="-13.2671" y1="-23.5065" x2="284.299" y2="-7.76879" gradientUnits="userSpaceOnUse">
<stop stop-color="#C6F1F7"/>
<stop offset="0.364583" stop-color="#F983E9"/>
<stop offset="0.739583" stop-color="#B877FF"/>
<stop offset="1" stop-color="#C2E9CD"/>
</linearGradient>
</defs>
</svg>
