<svg width="27" height="24" viewBox="0 0 27 24" fill="none" xmlns="http://www.w3.org/2000/svg">
<path fill-rule="evenodd" clip-rule="evenodd" d="M5.2058 0.290083C1.85154 1.43896 -0.275876 4.65827 0.0289571 8.12357C0.325192 11.4904 1.98676 14.5718 5.29146 17.8821C7.97196 20.5672 12.5793 24 13.5026 24C13.9987 24 16.9273 22.1078 18.723 20.6269C20.7274 18.974 22.5877 17.1083 24.0582 15.276C25.2521 13.7886 26.3826 11.3535 26.7967 9.37819C27.3834 6.57919 26.6923 4.05567 24.8261 2.18276C23.338 0.689359 21.6633 0.00031388 19.5211 1.07089e-07C17.5076 -0.000313666 15.8473 0.688888 14.4405 2.10887L13.5026 3.05567L12.5646 2.10965C11.634 1.17131 10.7131 0.626447 9.35997 0.21415C8.37747 -0.0851892 6.18455 -0.0451833 5.2058 0.290083Z" fill="current"/>
</svg>
