<svg width="26" height="26" viewBox="0 0 26 26" fill="none" xmlns="http://www.w3.org/2000/svg">
<path d="M2 6.33333H24M10.25 11.6667V19.6667M15.75 11.6667V19.6667M3.375 6.33333L4.75 22.3333C4.75 23.0406 5.03973 23.7189 5.55546 24.219C6.07118 24.719 6.77065 25 7.5 25H18.5C19.2293 25 19.9288 24.719 20.4445 24.219C20.9603 23.7189 21.25 23.0406 21.25 22.3333L22.625 6.33333M8.875 6.33333V2.33333C8.875 1.97971 9.01987 1.64057 9.27773 1.39052C9.53559 1.14048 9.88533 1 10.25 1H15.75C16.1147 1 16.4644 1.14048 16.7223 1.39052C16.9801 1.64057 17.125 1.97971 17.125 2.33333V6.33333" stroke="current" stroke-width="2" stroke-linecap="round" stroke-linejoin="round"/>
</svg>
