<svg width="220" height="44" viewBox="0 0 220 44" fill="none" xmlns="http://www.w3.org/2000/svg">
<path d="M11.8613 39.863H4.09082V4.6818H11.8613V39.863Z" fill="white"/>
<path d="M44.8737 11.2536H34.282V39.863H26.5115V11.2536H15.9198V4.6818H44.8737V11.2536Z" fill="white"/>
<path d="M80.5092 4.6818C86.9929 4.6818 92.3877 7.59709 92.3877 14.663C92.3877 18.7642 90.309 21.9759 86.7949 23.31C90.7049 24.1006 91.6948 28.0536 91.9918 31.5124C92.1898 33.7359 92.2887 38.5783 93.6746 39.863H85.6566C84.7657 38.0842 84.7657 34.5759 84.5677 32.6489C84.0728 27.8065 82.5879 26.0771 77.5396 26.0771H70.6599V39.863H62.9884V4.6818H80.5092ZM70.6599 20.4936H77.985C81.5981 20.4936 84.8152 19.8512 84.8152 15.503C84.8152 11.4512 81.5981 10.7594 78.3315 10.7594H70.6599V20.4936Z" fill="white"/>
<path d="M129.357 39.8629H121.24L118.469 32.0064H105.353L102.482 39.8629H94.563L107.976 4.63232H115.944L129.357 39.8629ZM111.935 13.2794L107.233 26.3735H116.588L111.935 13.2794Z" fill="white"/>
<path d="M142.131 8.41233L158.702 19.7375C160.34 20.743 160.446 22.8826 158.912 24.0116L142.341 35.0774C140.401 36.5103 137.481 35.2676 137.481 33.0095V10.621C137.481 8.47163 140.159 7.19927 142.131 8.41233Z" fill="url(#paint0_linear_2001_110)" stroke="url(#paint1_linear_2001_110)" stroke-width="7.67085" stroke-miterlimit="10" stroke-linejoin="round"/>
<path d="M176.755 39.8258H168.984V4.64462H176.755V39.8258Z" fill="white"/>
<path d="M216.795 22.2846C216.795 33.2541 209.817 40.6658 199.472 40.6658C189.029 40.6658 182.051 33.3035 182.051 22.2846C182.051 11.1176 188.98 3.80464 199.522 3.80464C209.817 3.80464 216.795 11.2658 216.795 22.2846ZM189.871 22.1364C189.871 29.6964 193.533 34.2423 199.522 34.2917C205.362 34.2917 208.975 29.647 208.975 22.1364C208.975 14.7246 205.313 10.1293 199.423 10.1293C193.583 10.1293 189.871 14.8235 189.871 22.1364Z" fill="white"/>
<defs>
<linearGradient id="paint0_linear_2001_110" x1="138.986" y1="9.5765" x2="159.951" y2="29.7647" gradientUnits="userSpaceOnUse">
<stop stop-color="#8E00FE"/>
<stop offset="1" stop-color="#6800FF"/>
</linearGradient>
<linearGradient id="paint1_linear_2001_110" x1="138.986" y1="9.5765" x2="159.951" y2="29.7647" gradientUnits="userSpaceOnUse">
<stop stop-color="#8E00FE"/>
<stop offset="1" stop-color="#6800FF"/>
</linearGradient>
</defs>
</svg>
