<svg width="20" height="21" viewBox="0 0 20 21" fill="none" xmlns="http://www.w3.org/2000/svg">
<g clip-path="url(#clip0_580_587)">
<path d="M3.264 9.07899C3.20042 9.14379 3.12456 9.19526 3.04085 9.23039C2.95715 9.26553 2.86728 9.28363 2.7765 9.28363C2.68572 9.28363 2.59585 9.26553 2.51215 9.23039C2.42844 9.19526 2.35258 9.14379 2.289 9.07899C2.15959 8.94733 2.08707 8.7701 2.08707 8.58549C2.08707 8.40088 2.15959 8.22365 2.289 8.09199L8.32 1.99999C9.68 0.943991 11.048 0.436991 12.41 0.505991C14.126 0.593991 15.462 1.24799 16.596 2.32099C17.752 3.41499 18.5 4.97599 18.5 6.86799C18.5 8.31999 18.078 9.59799 17.187 10.732L8.684 19.492C7.824 20.197 6.868 20.538 5.844 20.497C4.544 20.443 3.577 20.023 2.858 19.312C2.016 18.481 1.5 17.46 1.5 16.087C1.5 14.995 1.877 13.987 2.655 13.041L10.139 5.39999C10.739 4.75999 11.326 4.37999 11.926 4.28799C12.3265 4.22492 12.7363 4.26074 13.1197 4.39233C13.5032 4.52392 13.8487 4.7473 14.126 5.04299C14.658 5.60599 14.886 6.30799 14.806 7.10699C14.751 7.65199 14.528 8.15399 14.118 8.63499L7.238 15.683C7.17483 15.748 7.09935 15.7998 7.01596 15.8354C6.93256 15.871 6.84292 15.8896 6.75226 15.8901C6.6616 15.8907 6.57173 15.8732 6.4879 15.8387C6.40408 15.8041 6.32796 15.7532 6.264 15.689C6.13378 15.5581 6.06019 15.3813 6.05906 15.1967C6.05794 15.0121 6.12938 14.8344 6.258 14.702L13.105 7.68999C13.305 7.45499 13.41 7.21799 13.435 6.96599C13.475 6.56599 13.379 6.27099 13.13 6.00799C13.0042 5.8733 12.8471 5.77177 12.6727 5.71245C12.4982 5.65314 12.3118 5.63786 12.13 5.66799C11.887 5.70499 11.547 5.92599 11.128 6.37199L3.675 13.979C3.138 14.634 2.878 15.329 2.878 16.088C2.878 17.042 3.223 17.725 3.82 18.314C4.295 18.784 4.94 19.064 5.9 19.104C6.58 19.131 7.21 18.906 7.758 18.462L16.155 9.81199C16.8 8.98499 17.122 8.01199 17.122 6.86899C17.122 5.38699 16.545 4.18499 15.654 3.34099C14.744 2.47899 13.704 1.97099 12.341 1.90099C11.333 1.84899 10.276 2.24099 9.224 3.04699L3.264 9.07899Z" fill="url(#paint0_linear_580_587)"/>
</g>
<defs>
<linearGradient id="paint0_linear_580_587" x1="18.9474" y1="3.8332" x2="-0.25315" y2="6.91661" gradientUnits="userSpaceOnUse">
<stop stop-color="#5E5BFC"/>
<stop offset="1" stop-color="#871DF0"/>
</linearGradient>
<clipPath id="clip0_580_587">
<rect width="20" height="20" fill="white" transform="translate(0 0.5)"/>
</clipPath>
</defs>
</svg>
