<svg width="220" height="220" viewBox="0 0 220 220" fill="current" xmlns="http://www.w3.org/2000/svg">
<rect width="220" height="220" fill="url(#paint0_linear_365_2426)"/>
<path fill-rule="evenodd" clip-rule="evenodd" d="M130.768 49.5044C117.885 53.6039 101.991 58.6307 95.447 60.6741C88.9032 62.7175 82.5089 65.1543 81.2373 66.0897C76.4143 69.6352 76.4849 68.9812 76.4849 110.279V147.646L72.581 146.599C62.2894 143.84 51.2803 148.827 47.8366 157.808C46.0245 162.535 47.1897 167.867 51.0066 172.309C59.8333 182.579 79.4333 180.67 84.7442 169.024C86.0158 166.235 86.1206 163.497 86.1355 132.614L86.1519 99.218L87.825 98.4618C90.1041 97.4316 149.448 78.8325 150.846 78.7103C151.813 78.6259 151.987 81.7647 152.158 102.217L152.354 125.822L150.67 125.28C147.49 124.256 138.36 123.996 135.745 124.856C121.41 129.568 118.359 145.554 130.288 153.443C138.924 159.154 149.546 158.441 156.729 151.668C159.142 149.392 160.644 147.234 161.181 145.271C161.727 143.275 161.993 126.525 161.996 93.9476L162 45.5864L160.174 43.7689C159.063 42.6616 157.537 41.9706 156.271 42.001C155.128 42.0284 143.651 45.405 130.768 49.5044Z" fill="current"/>
<defs>
<linearGradient id="paint0_linear_365_2426" x1="225.789" y1="36.6667" x2="-20.311" y2="83.1634" gradientUnits="userSpaceOnUse">
<stop stop-color="#5E5BFC"/>
<stop offset="1" stop-color="#871DF0"/>
</linearGradient>
</defs>
</svg>
