<svg width="24" height="25" viewBox="0 0 24 25" fill="none" xmlns="http://www.w3.org/2000/svg">
<g clip-path="url(#clip0_356_552)">
<path fill-rule="evenodd" clip-rule="evenodd" d="M19.7767 5.2164C20.0238 5.11239 20.2943 5.07652 20.5599 5.11252C20.8256 5.14852 21.0768 5.25507 21.2873 5.42109C21.4979 5.58711 21.6601 5.80652 21.757 6.05649C21.854 6.30645 21.8822 6.57784 21.8387 6.8424L19.5707 20.5994C19.3507 21.9264 17.8947 22.6874 16.6777 22.0264C15.6597 21.4734 14.1477 20.6214 12.7877 19.7324C12.1077 19.2874 10.0247 17.8624 10.2807 16.8484C10.5007 15.9814 14.0007 12.7234 16.0007 10.7864C16.7857 10.0254 16.4277 9.5864 15.5007 10.2864C13.1987 12.0244 9.50265 14.6674 8.28065 15.4114C7.20265 16.0674 6.64065 16.1794 5.96865 16.0674C4.74265 15.8634 3.60565 15.5474 2.67765 15.1624C1.42365 14.6424 1.48465 12.9184 2.67665 12.4164L19.7767 5.2164Z" fill="white"/>
</g>
<defs>
<clipPath id="clip0_356_552">
<rect width="24" height="24" fill="white" transform="translate(0 0.786377)"/>
</clipPath>
</defs>
</svg>
