<svg width="24" height="25" viewBox="0 0 24 25" fill="none" xmlns="http://www.w3.org/2000/svg">
<path d="M21.504 19.1674H19.222C18.359 19.1674 18.099 18.4684 16.552 16.9204C15.2 15.6174 14.629 15.4554 14.287 15.4554C13.814 15.4554 13.685 15.5854 13.685 16.2364V18.2884C13.685 18.8434 13.505 19.1684 12.055 19.1684C10.6483 19.0739 9.28416 18.6466 8.07497 17.9216C6.86578 17.1966 5.84612 16.1947 5.1 14.9984C3.32839 12.7934 2.09571 10.2055 1.5 7.44041C1.5 7.09841 1.63 6.78841 2.282 6.78841H4.562C5.148 6.78841 5.359 7.04941 5.589 7.65241C6.696 10.9104 8.585 13.7444 9.352 13.7444C9.646 13.7444 9.774 13.6144 9.774 12.8814V9.52541C9.677 7.99441 8.864 7.86541 8.864 7.31141C8.87428 7.16525 8.94114 7.02885 9.05037 6.9312C9.15961 6.83354 9.30261 6.78232 9.449 6.78841H13.033C13.523 6.78841 13.685 7.03241 13.685 7.61841V12.1484C13.685 12.6374 13.895 12.7994 14.043 12.7994C14.337 12.7994 14.563 12.6374 15.102 12.0994C16.2574 10.6904 17.2013 9.12057 17.904 7.43941C17.9759 7.23756 18.1119 7.06478 18.2912 6.94742C18.4705 6.83006 18.6832 6.77457 18.897 6.78941H21.178C21.862 6.78941 22.007 7.13141 21.862 7.61941C21.0324 9.47782 20.0058 11.2419 18.8 12.8814C18.554 13.2564 18.456 13.4514 18.8 13.8914C19.026 14.2334 19.826 14.9014 20.363 15.5364C21.145 16.3164 21.794 17.2184 22.285 18.2064C22.481 18.8424 22.155 19.1674 21.504 19.1674Z" fill="white"/>
</svg>
