<svg width="24" height="24" viewBox="0 0 24 24" fill="none" xmlns="http://www.w3.org/2000/svg">
<g clip-path="url(#clip0_504_1727)">
<path d="M20.8077 4.29C20.7148 4.19709 20.6045 4.12339 20.4831 4.07311C20.3617 4.02283 20.2316 3.99695 20.1002 3.99695C19.9688 3.99695 19.8387 4.02283 19.7173 4.07311C19.5959 4.12339 19.4856 4.19709 19.3927 4.29C19.2998 4.38291 19.2261 4.49322 19.1758 4.61461C19.1255 4.736 19.0996 4.86611 19.0996 4.9975C19.0996 5.1289 19.1255 5.25901 19.1758 5.3804C19.2261 5.50179 19.2998 5.61209 19.3927 5.705C21.0596 7.37591 21.9958 9.63977 21.9958 12C21.9958 14.3602 21.0596 16.6241 19.3927 18.295C19.205 18.4826 19.0996 18.7371 19.0996 19.0025C19.0996 19.2679 19.205 19.5224 19.3927 19.71C19.5803 19.8976 19.8348 20.0031 20.1002 20.0031C20.3655 20.0031 20.62 19.8976 20.8077 19.71C22.8494 17.6636 23.9961 14.8908 23.9961 12C23.9961 9.1092 22.8494 6.33643 20.8077 4.29Z" fill="white"/>
<path d="M18.099 7.29092C18.0061 7.19768 17.8958 7.12366 17.7742 7.07307C17.6527 7.02248 17.5224 6.99633 17.3908 6.9961C17.2592 6.99586 17.1288 7.02156 17.0071 7.07172C16.8854 7.12187 16.7748 7.19551 16.6815 7.28842C16.5883 7.38133 16.5143 7.49169 16.4637 7.61321C16.4131 7.73473 16.387 7.86502 16.3867 7.99665C16.3865 8.12828 16.4122 8.25866 16.4623 8.38036C16.5125 8.50206 16.5861 8.61268 16.679 8.70592C17.5518 9.58001 18.042 10.7647 18.042 11.9999C18.042 13.2351 17.5518 14.4198 16.679 15.2939C16.5861 15.3872 16.5125 15.4978 16.4623 15.6195C16.4122 15.7412 16.3865 15.8716 16.3867 16.0032C16.387 16.1348 16.4131 16.2651 16.4637 16.3866C16.5143 16.5081 16.5883 16.6185 16.6815 16.7114C16.8698 16.8991 17.125 17.0042 17.3908 17.0037C17.5224 17.0035 17.6527 16.9774 17.7742 16.9268C17.8958 16.8762 18.0061 16.8022 18.099 16.7089C19.3464 15.4592 20.0469 13.7656 20.0469 11.9999C20.0469 10.2342 19.3464 8.54066 18.099 7.29092Z" fill="white"/>
<path d="M13.82 0.199989C10.7793 0.771257 8.07468 2.48984 6.266 4.99999H5C3.67457 5.0021 2.40403 5.52957 1.4668 6.46679C0.529579 7.40402 0.00211562 8.67456 0 9.99999L0 14C0.00211562 15.3254 0.529579 16.596 1.4668 17.5332C2.40403 18.4704 3.67457 18.9979 5 19H6.266C8.07504 21.5098 10.7795 23.2282 13.82 23.8C13.8796 23.8116 13.9403 23.8173 14.001 23.817C14.2662 23.817 14.5206 23.7116 14.7081 23.5241C14.8956 23.3366 15.001 23.0822 15.001 22.817V1.18599C15.0014 1.03912 14.9694 0.893979 14.9073 0.760871C14.8453 0.627764 14.7546 0.509962 14.6419 0.415837C14.5292 0.321712 14.3971 0.253576 14.255 0.21627C14.113 0.178965 13.9644 0.173406 13.82 0.199989ZM13 21.535C10.7944 20.8319 8.89788 19.3912 7.629 17.455C7.53834 17.3155 7.41432 17.2009 7.26817 17.1214C7.12201 17.042 6.95835 17.0002 6.792 17H5C4.20435 17 3.44129 16.6839 2.87868 16.1213C2.31607 15.5587 2 14.7956 2 14V9.99999C2 9.20434 2.31607 8.44128 2.87868 7.87867C3.44129 7.31606 4.20435 6.99999 5 6.99999H6.8C6.96617 6.99997 7.12971 6.95854 7.27585 6.87945C7.42198 6.80035 7.54611 6.68609 7.637 6.54699C8.90329 4.61123 10.7969 3.16993 13 2.46499V21.535Z" fill="white"/>
</g>
<defs>
<clipPath id="clip0_504_1727">
<rect width="24" height="24" fill="white"/>
</clipPath>
</defs>
</svg>
